<svg width="64" height="64" viewBox="0 0 64 64" fill="none" xmlns="http://www.w3.org/2000/svg">
  <rect width="64" height="64" rx="16" fill="#050505"/>
  <rect x="6" y="6" width="52" height="52" rx="12" stroke="#F7D96B" stroke-opacity="0.55"/>
  <path d="M14 20H24V34.5C24 41.25 20.3 45 14.2 45C12.8 45 11.35 44.78 10 44.32V37.6C10.95 37.95 11.75 38.1 12.55 38.1C14.85 38.1 16 36.85 16 34.25V20H14ZM29 20H38.4C44.7 20 48.7 23.1 48.7 28.35C48.7 31.55 47.15 33.95 44.35 35.25L50.5 44.5H41.45L36.55 36.55H36.35V44.5H29V20ZM36.35 26.35V31.1H38.35C40.05 31.1 41.05 30.25 41.05 28.75C41.05 27.25 40.05 26.35 38.35 26.35H36.35Z" fill="#F5F2E8"/>
</svg>
